<?xml version="1.0" standalone="no"?>
<!DOCTYPE svg PUBLIC "-//W3C//DTD SVG 20010904//EN"
 "http://www.w3.org/TR/2001/REC-SVG-20010904/DTD/svg10.dtd">
<svg version="1.0" xmlns="http://www.w3.org/2000/svg"
 width="569.000000pt" height="569.000000pt" viewBox="0 0 569.000000 569.000000"
 preserveAspectRatio="xMidYMid meet">
<metadata>
Created by potrace 1.14, written by Peter Selinger 2001-2017
</metadata>
<g transform="translate(0.000000,569.000000) scale(0.100000,-0.100000)"
fill="#000000" stroke="none">
<path d="M2105 5478 c-381 -38 -761 -188 -1070 -422 -104 -78 -289 -259 -368
-359 -212 -269 -357 -579 -421 -900 -60 -299 -60 -555 0 -857 63 -314 219
-648 419 -897 72 -90 241 -258 335 -333 353 -281 779 -437 1245 -456 318 -13
658 53 950 184 128 58 174 68 241 53 128 -29 313 -198 725 -661 130 -146 292
-328 360 -405 172 -193 252 -250 384 -274 160 -29 341 65 505 262 169 202 178
387 29 584 -22 29 -115 119 -206 200 -847 749 -1000 905 -1034 1057 -15 67 -5
113 51 236 79 177 133 359 167 565 24 153 25 477 0 630 -63 386 -220 741 -455
1028 -80 97 -269 279 -364 350 -427 319 -965 468 -1493 415z m451 -914 c296
-61 560 -228 743 -471 65 -86 164 -285 191 -383 11 -41 27 -118 35 -170 57
-372 -75 -762 -349 -1034 -188 -185 -418 -300 -686 -341 -165 -26 -332 -14
-510 35 -98 27 -297 126 -383 191 -246 186 -408 443 -473 751 -24 115 -24 343
0 458 54 255 156 441 340 626 213 212 433 318 746 358 65 8 265 -3 346 -20z"/>
</g>
</svg>
